<?xml version="1.0" encoding="utf-8"?>
<!-- Generator: Adobe Illustrator 15.0.0, SVG Export Plug-In . SVG Version: 6.00 Build 0)  -->
<!DOCTYPE svg PUBLIC "-//W3C//DTD SVG 1.1//EN" "http://www.w3.org/Graphics/SVG/1.1/DTD/svg11.dtd">
<svg version="1.1" id="图层_1" xmlns:sketch="http://www.bohemiancoding.com/sketch/ns"
	 xmlns="http://www.w3.org/2000/svg" xmlns:xlink="http://www.w3.org/1999/xlink" x="0px" y="0px" width="32px" height="9px"
	 viewBox="0 0 32 9" enable-background="new 0 0 32 9" xml:space="preserve">
<title>upvoted</title>
<desc>Created with Sketch Beta.</desc>
<g id="Page-1" sketch:type="MSPage">
	<path id="upvoted" sketch:type="MSShapeGroup" fill="#FF5722" d="M31.68,7.094L31.68,7.094l-6.857-6.75v0
		C24.614,0.132,24.323,0,24,0h-0.002h-0.004c-0.322,0-0.613,0.132-0.822,0.344v0l-6.857,6.75l0.003,0.003
		C16.121,7.299,16,7.573,16,7.875C16,8.496,16.512,9,17.143,9C17.49,9,17.8,8.848,18.01,8.607l5.988-5.894l6.065,5.972l0.001-0.001
		C30.27,8.88,30.549,9,30.857,9C31.488,9,32,8.496,32,7.875C32,7.572,31.878,7.297,31.68,7.094L31.68,7.094z"/>
	<path id="upvote" sketch:type="MSShapeGroup" fill="#ADB3B9" d="M15.68,7.094L15.68,7.094l-6.857-6.75l0,0C8.614,0.132,8.323,0,8,0
		H7.998H7.995C7.671,0,7.38,0.132,7.172,0.344l0,0l-6.857,6.75l0.003,0.003C0.121,7.299,0,7.573,0,7.875C0,8.496,0.512,9,1.143,9
		C1.49,9,1.8,8.848,2.009,8.607l5.988-5.894l6.066,5.972l0-0.001C14.27,8.88,14.549,9,14.857,9C15.488,9,16,8.496,16,7.875
		C16,7.572,15.878,7.297,15.68,7.094L15.68,7.094z"/>
</g>
</svg>
